<svg width="14" height="10" viewBox="0 0 14 10" fill="none" xmlns="http://www.w3.org/2000/svg">
<path fill-rule="evenodd" clip-rule="evenodd" d="M13.5518 0.182319C13.6247 0.246188 13.6843 0.323924 13.7269 0.411005C13.7695 0.498086 13.7944 0.592776 13.8002 0.689568C13.8059 0.78636 13.7923 0.883323 13.7602 0.974819C13.7281 1.06632 13.6782 1.15052 13.6132 1.22253L5.92205 9.75858C5.85681 9.83087 5.7778 9.8894 5.68964 9.93076C5.60148 9.97211 5.50596 9.99545 5.40866 9.9994C5.31137 10.0033 5.21427 9.98783 5.12305 9.95377C5.03183 9.9197 4.94833 9.86776 4.87744 9.801L0.42689 5.61162C0.293372 5.48414 0.212531 5.31121 0.200341 5.127C0.188151 4.9428 0.245499 4.76073 0.361053 4.61676C0.423426 4.53871 0.50101 4.47415 0.589096 4.427C0.677181 4.37985 0.77393 4.35109 0.87347 4.34247C0.973009 4.33385 1.07326 4.34555 1.16814 4.37685C1.26302 4.40816 1.35055 4.45842 1.42541 4.52459L4.87817 7.6306C5.02234 7.76036 5.21214 7.82755 5.40583 7.8174C5.59953 7.80724 5.78126 7.72058 5.91108 7.57647L12.5262 0.241571C12.655 0.0988071 12.8348 0.0124746 13.0267 0.00124909C13.2186 -0.00997641 13.4072 0.0555392 13.5518 0.182319Z" fill="white"/>
</svg>
