<svg width="40" height="40" viewBox="0 0 40 40" fill="none" xmlns="http://www.w3.org/2000/svg">
<g clip-path="url(#clip0_96_559)">
<path d="M25.6579 23.2242C25.5034 23.2242 25.3524 23.1783 25.224 23.0925C25.0955 23.0066 24.9954 22.8846 24.9363 22.7419C24.8772 22.5992 24.8617 22.4421 24.8918 22.2906C24.922 22.1391 24.9963 21.9999 25.1056 21.8906L30.372 16.625C30.4442 16.5509 30.5304 16.492 30.6256 16.4515C30.7207 16.411 30.823 16.3898 30.9264 16.3892C31.0299 16.3885 31.1324 16.4084 31.2281 16.4477C31.3237 16.487 31.4107 16.5449 31.4838 16.618C31.5569 16.6912 31.6148 16.7781 31.6541 16.8738C31.6933 16.9695 31.7132 17.072 31.7126 17.1754C31.7119 17.2788 31.6907 17.3811 31.6502 17.4763C31.6097 17.5715 31.5507 17.6576 31.4767 17.7298L26.211 22.9955C26.1385 23.0682 26.0523 23.1258 25.9573 23.1651C25.8624 23.2044 25.7606 23.2244 25.6579 23.2242Z" fill="white"/>
<path d="M24.0831 39.4328C20.3899 39.4309 16.8119 38.1467 13.9604 35.7995C13.8005 35.6677 13.6996 35.4777 13.6797 35.2714C13.6599 35.0651 13.7228 34.8594 13.8546 34.6995C13.9865 34.5396 14.1764 34.4386 14.3827 34.4188C14.589 34.399 14.7947 34.4619 14.9546 34.5937C17.3172 36.5389 20.2397 37.6779 23.2954 37.8447C26.3512 38.0114 29.3802 37.197 31.9404 35.5204C34.5005 33.8438 36.4577 31.3928 37.5263 28.5251C38.5949 25.6574 38.719 22.5233 37.8803 19.5802C37.0416 16.637 35.2842 14.039 32.8645 12.1654C30.4448 10.2917 27.4896 9.24057 24.4302 9.16531C21.3709 9.09005 18.3675 9.99464 15.8586 11.747C13.3498 13.4994 11.4667 16.0079 10.4843 18.9062C10.4518 19.0039 10.4003 19.0941 10.3327 19.1718C10.2652 19.2495 10.183 19.313 10.0908 19.3588C9.99867 19.4046 9.89836 19.4318 9.79567 19.4387C9.69298 19.4456 9.58994 19.4322 9.49246 19.3991C9.39498 19.3661 9.30499 19.3141 9.22765 19.2462C9.15032 19.1783 9.08716 19.0958 9.04182 19.0034C8.99648 18.911 8.96983 18.8106 8.96343 18.7078C8.95702 18.6051 8.97098 18.5021 9.00449 18.4048C9.94391 15.6325 11.6296 13.1728 13.8762 11.2963C16.1227 9.41977 18.8432 8.19902 21.7386 7.76827C24.6339 7.33753 27.5919 7.71345 30.2875 8.85472C32.983 9.99599 35.3117 11.8584 37.0175 14.2372C38.7232 16.616 39.7401 19.4191 39.9562 22.3383C40.1723 25.2575 39.5793 28.1798 38.2424 30.7839C36.9055 33.3879 34.8765 35.573 32.3784 37.0987C29.8802 38.6245 27.0098 39.4319 24.0826 39.4322L24.0831 39.4328Z" fill="white"/>
<path d="M34.784 13.5936C34.6295 13.5936 34.4785 13.5478 34.35 13.462C34.2215 13.3761 34.1214 13.2541 34.0623 13.1113C34.0031 12.9685 33.9877 12.8114 34.0178 12.6599C34.048 12.5083 34.1224 12.3691 34.2317 12.2599L36.5612 9.93051C36.708 9.78506 36.9063 9.70365 37.1129 9.7041C37.3196 9.70456 37.5176 9.78683 37.6637 9.93292C37.8098 10.079 37.892 10.277 37.8925 10.4836C37.8929 10.6902 37.8115 10.8886 37.6661 11.0354L35.3364 13.3649C35.2639 13.4375 35.1778 13.4951 35.083 13.5344C34.9883 13.5736 34.8866 13.5938 34.784 13.5936Z" fill="white"/>
<path d="M38.4063 12.5563C38.3036 12.5565 38.202 12.5363 38.1072 12.497C38.0124 12.4577 37.9263 12.4001 37.8539 12.3274L35.2689 9.74272C35.1234 9.59601 35.042 9.39765 35.0424 9.19104C35.0428 8.98444 35.1251 8.78641 35.2712 8.64029C35.4172 8.49418 35.6152 8.41188 35.8219 8.41139C36.0285 8.41091 36.2268 8.49229 36.3736 8.63772L38.9584 11.2226C39.0677 11.3318 39.1421 11.471 39.1723 11.6226C39.2025 11.7741 39.187 11.9312 39.1279 12.074C39.0688 12.2168 38.9686 12.3388 38.8402 12.4246C38.7117 12.5105 38.5606 12.5563 38.4061 12.5563H38.4063ZM24.0831 9.16163C23.8759 9.16163 23.6772 9.07932 23.5307 8.93281C23.3842 8.78629 23.3019 8.58758 23.3019 8.38038V4.86694C23.3019 4.65974 23.3842 4.46103 23.5307 4.31452C23.6772 4.168 23.8759 4.08569 24.0831 4.08569C24.2903 4.08569 24.489 4.168 24.6356 4.31452C24.7821 4.46103 24.8644 4.65974 24.8644 4.86694V8.38038C24.8644 8.58758 24.7821 8.78629 24.6356 8.93281C24.489 9.07932 24.2903 9.16163 24.0831 9.16163Z" fill="white"/>
<path d="M28.8408 5.64823H19.3252C19.118 5.64823 18.9192 5.56592 18.7727 5.41941C18.6262 5.2729 18.5439 5.07418 18.5439 4.86698V1.34839C18.5439 1.14119 18.6262 0.942474 18.7727 0.795961C18.9192 0.649449 19.118 0.567139 19.3252 0.567139H28.8408C29.048 0.567139 29.2467 0.649449 29.3932 0.795961C29.5397 0.942474 29.622 1.14119 29.622 1.34839V4.86698C29.622 5.07418 29.5397 5.2729 29.3932 5.41941C29.2467 5.56592 29.048 5.64823 28.8408 5.64823ZM20.1064 4.08573H28.0595V2.12964H20.1064V4.08573ZM24.0831 26.1732C23.5576 26.1732 23.0438 26.0174 22.6068 25.7254C22.1698 25.4334 21.8292 25.0184 21.6281 24.5329C21.427 24.0473 21.3743 23.513 21.4768 22.9976C21.5793 22.4821 21.8324 22.0086 22.204 21.637C22.5756 21.2653 23.0491 21.0122 23.5645 20.9096C24.08 20.8071 24.6143 20.8597 25.0998 21.0607C25.5854 21.2618 26.0004 21.6024 26.2925 22.0393C26.5845 22.4763 26.7404 22.99 26.7405 23.5156C26.7398 24.2202 26.4596 24.8957 25.9614 25.3939C25.4632 25.8922 24.7877 26.1724 24.0831 26.1732ZM24.0831 22.4212C23.8666 22.4212 23.6549 22.4854 23.4748 22.6057C23.2948 22.726 23.1545 22.897 23.0716 23.0971C22.9887 23.2972 22.9671 23.5173 23.0093 23.7297C23.0516 23.9421 23.1559 24.1372 23.309 24.2903C23.4621 24.4434 23.6572 24.5476 23.8696 24.5899C24.082 24.6321 24.3022 24.6104 24.5022 24.5275C24.7023 24.4446 24.8732 24.3043 24.9935 24.1242C25.1138 23.9441 25.178 23.7324 25.178 23.5159C25.1775 23.2257 25.0619 22.9476 24.8567 22.7425C24.6515 22.5374 24.3733 22.4221 24.0831 22.4218V22.4212ZM14.2464 22.1021H6.95312C6.74592 22.1021 6.54721 22.0198 6.4007 21.8733C6.25419 21.7268 6.17188 21.5281 6.17188 21.3209C6.17188 21.1137 6.25419 20.915 6.4007 20.7685C6.54721 20.6219 6.74592 20.5396 6.95312 20.5396H14.2464C14.4536 20.5396 14.6523 20.6219 14.7988 20.7685C14.9453 20.915 15.0277 21.1137 15.0277 21.3209C15.0277 21.5281 14.9453 21.7268 14.7988 21.8733C14.6523 22.0198 14.4536 22.1021 14.2464 22.1021ZM14.2464 27.8489H4.54828C4.34108 27.8489 4.14237 27.7665 3.99585 27.62C3.84934 27.4735 3.76703 27.2748 3.76703 27.0676C3.76703 26.8604 3.84934 26.6617 3.99585 26.5152C4.14237 26.3687 4.34108 26.2864 4.54828 26.2864H14.2464C14.4536 26.2864 14.6523 26.3687 14.7988 26.5152C14.9453 26.6617 15.0277 26.8604 15.0277 27.0676C15.0277 27.2748 14.9453 27.4735 14.7988 27.62C14.6523 27.7665 14.4536 27.8489 14.2464 27.8489ZM14.2464 33.7799H0.78125C0.57405 33.7799 0.375336 33.6976 0.228823 33.5511C0.08231 33.4046 0 33.2059 0 32.9987C0 32.7915 0.08231 32.5928 0.228823 32.4463C0.375336 32.2998 0.57405 32.2175 0.78125 32.2175H14.2464C14.4536 32.2175 14.6523 32.2998 14.7988 32.4463C14.9453 32.5928 15.0277 32.7915 15.0277 32.9987C15.0277 33.2059 14.9453 33.4046 14.7988 33.5511C14.6523 33.6976 14.4536 33.7799 14.2464 33.7799Z" fill="white"/>
</g>
<defs>
<clipPath id="clip0_96_559">
<rect width="40" height="40" fill="white"/>
</clipPath>
</defs>
</svg>
