<svg width="33" height="32" viewBox="0 0 33 32" fill="none" xmlns="http://www.w3.org/2000/svg">
<g clip-path="url(#clip0_123_29)">
<path d="M32.5 16C32.5 7.16344 25.3366 0 16.5 0C7.66344 0 0.5 7.16344 0.5 16C0.5 24.8366 7.66344 32 16.5 32C25.3366 32 32.5 24.8366 32.5 16Z" fill="#428BCA"/>
<path fill-rule="evenodd" clip-rule="evenodd" d="M23.4825 9.62251C23.3508 9.66795 17.4658 11.7298 13.2264 13.2159C10.609 14.1334 8.3949 14.9127 8.30622 14.9475C8.0877 15.0335 7.84533 15.2007 7.76358 15.3219C7.62786 15.5229 7.71205 15.7286 7.98941 15.8736C8.08784 15.9251 8.95099 16.1863 10.136 16.5234L12.1179 17.0871L16.5612 14.5411C19.0052 13.1408 21.0637 11.9705 21.136 11.9404C21.2081 11.9103 21.3066 11.8853 21.3548 11.8849C21.6089 11.883 21.6099 11.9949 21.3575 12.2189C21.2536 12.3111 19.6402 13.6408 17.7719 15.1739C15.9036 16.707 14.3553 17.978 14.3312 17.9986C14.2988 18.026 14.254 18.4668 14.1608 19.6696C14.0912 20.5683 14.0269 21.3761 14.018 21.4649L14.0015 21.6263L14.1443 21.6116C14.4181 21.5834 14.5469 21.4911 15.6019 20.5676C16.1684 20.0717 16.6438 19.666 16.6585 19.666C16.6732 19.666 17.4947 20.2087 18.484 20.8719C19.4732 21.5352 20.3524 22.1243 20.4377 22.181C20.6432 22.3174 20.9101 22.4001 21.1451 22.4001C21.4761 22.4001 21.7185 22.2049 21.8582 21.8259C21.8849 21.7534 22.4902 19.1899 23.2034 16.1292C24.0736 12.394 24.5 10.5064 24.5 10.3879C24.5 10.047 24.3532 9.77627 24.1056 9.66067C23.9802 9.60211 23.608 9.57931 23.4825 9.62251Z" fill="white"/>
</g>
<defs>
<clipPath id="clip0_123_29">
<rect width="32" height="32" fill="white" transform="translate(0.5)"/>
</clipPath>
</defs>
</svg>
