<svg width="33" height="32" viewBox="0 0 33 32" fill="none" xmlns="http://www.w3.org/2000/svg">
<g clip-path="url(#clip0_123_26)">
<path d="M32.5 16C32.5 7.16344 25.3366 0 16.5 0C7.66344 0 0.5 7.16344 0.5 16C0.5 24.8366 7.66344 32 16.5 32C25.3366 32 32.5 24.8366 32.5 16Z" fill="#2CB742"/>
<path fill-rule="evenodd" clip-rule="evenodd" d="M15.8538 8.00927C15.0476 8.10103 14.5838 8.19687 13.9809 8.39639C12.7398 8.80719 11.7046 9.45495 10.7746 10.4027C9.55336 11.6472 8.81296 13.1681 8.54552 14.9814C8.49063 15.3536 8.4903 16.5404 8.54496 16.9674C8.69936 18.1729 9.1328 19.3631 9.77056 20.3326C9.8888 20.5124 9.98552 20.6769 9.98552 20.6982C9.98552 20.7194 9.76808 21.3902 9.50232 22.1887C9.23648 22.9873 9.0236 23.6452 9.02912 23.6507C9.03472 23.6563 9.72392 23.4414 10.5608 23.1733L12.0824 22.6856L12.3684 22.8588C14.1081 23.9122 16.188 24.2514 18.2205 23.8134C18.6123 23.729 19.3482 23.4854 19.7242 23.3155C21.785 22.385 23.3624 20.6349 24.0646 18.4998C24.2353 17.981 24.3552 17.442 24.4057 16.9674C24.4249 16.7867 24.4539 16.579 24.4702 16.5056C24.5108 16.3233 24.5095 15.4252 24.4687 15.4505C24.4496 15.4623 24.4375 15.4142 24.4375 15.327C24.4375 14.9442 24.2701 14.1226 24.0643 13.4958C23.3642 11.3627 21.7851 9.61063 19.7242 8.68007C19.1278 8.41071 18.3512 8.18583 17.6118 8.06831C17.3206 8.02199 16.1014 7.98105 15.8538 8.00927ZM13.2074 11.6853C13.0431 11.7127 12.8373 11.8012 12.7148 11.8971C12.6794 11.9249 12.5697 12.0382 12.471 12.149C11.8241 12.8758 11.6706 13.9378 12.0616 14.9814C12.397 15.876 13.337 17.1812 14.3594 18.1714C15.2515 19.0356 16.0578 19.5552 17.1647 19.9795C18.4469 20.471 19.135 20.5718 19.7702 20.3612C20.3634 20.1645 20.8539 19.8102 21.0482 19.4382C21.2251 19.0994 21.3482 18.3639 21.2566 18.1924C21.2199 18.1238 20.3396 17.6642 19.5754 17.3146C18.9297 17.0192 18.8586 17.0406 18.4157 17.6638C18.3086 17.8147 18.1533 18.0118 18.0707 18.1017L17.9206 18.2653H17.6909C17.473 18.2653 17.4408 18.2554 17.0621 18.071C16.4245 17.7607 15.9423 17.4246 15.4364 16.9378C14.9186 16.4397 14.2306 15.4896 14.2306 15.2728C14.2306 15.178 14.3303 15.0375 14.6483 14.6842C14.924 14.3778 15.0597 14.1354 15.0289 14.0043C15.0177 13.9568 14.8237 13.4702 14.5976 12.9228C14.1338 11.7994 14.0854 11.7201 13.8396 11.6797C13.6451 11.6478 13.4205 11.6497 13.2074 11.6853ZM8.5 15.9665C8.5 16.2503 8.50472 16.3665 8.51048 16.2246C8.51632 16.0826 8.51632 15.8504 8.51048 15.7085C8.50472 15.5666 8.5 15.6827 8.5 15.9665Z" fill="white"/>
</g>
<defs>
<clipPath id="clip0_123_26">
<rect width="32" height="32" fill="white" transform="translate(0.5)"/>
</clipPath>
</defs>
</svg>
