<svg width="16" height="16" viewBox="0 0 16 16" fill="none" xmlns="http://www.w3.org/2000/svg">
<path d="M2.44776 14.4777L0.238806 12.6866C0.955224 11.9702 1.49254 11.2737 1.85075 10.5971C2.24876 9.92047 2.50746 9.26375 2.62687 8.62694C2.78607 7.99012 2.86567 7.33341 2.86567 6.65679L4.35821 7.61201H0V1.52246H6.08955V5.82097C6.08955 6.8956 5.97015 7.93042 5.73134 8.92545C5.53234 9.88067 5.17413 10.816 4.65672 11.7314C4.1393 12.6468 3.40299 13.5623 2.44776 14.4777ZM12.3582 14.4777L10.1493 12.6866C10.8657 11.9702 11.403 11.2737 11.7612 10.5971C12.1592 9.92047 12.4179 9.26375 12.5373 8.62694C12.6965 7.99012 12.7761 7.33341 12.7761 6.65679L14.2687 7.61201H9.91045V1.52246H16V5.82097C16 6.8956 15.8806 7.93042 15.6418 8.92545C15.4428 9.88067 15.0846 10.816 14.5672 11.7314C14.0498 12.6468 13.3134 13.5623 12.3582 14.4777Z" fill="#8A9A5B"/>
</svg>
