<svg width="16" height="16" viewBox="0 0 16 16" fill="none" xmlns="http://www.w3.org/2000/svg">
<path d="M13.5522 1.52232L15.7612 3.31336C15.0448 4.02978 14.5075 4.7263 14.1493 5.40291C13.7512 6.07953 13.4925 6.73625 13.3731 7.37306C13.2139 8.00988 13.1343 8.66659 13.1343 9.34321L11.6418 8.38799L16 8.38799L16 14.4775L9.91045 14.4775L9.91045 10.179C9.91045 9.1044 10.0299 8.06958 10.2687 7.07455C10.4677 6.11933 10.8259 5.18401 11.3433 4.26858C11.8607 3.35316 12.597 2.43774 13.5522 1.52232ZM3.64179 1.52231L5.85075 3.31336C5.13433 4.02978 4.59702 4.72629 4.23881 5.40291C3.8408 6.07953 3.58209 6.73625 3.46269 7.37306C3.30348 8.00988 3.22388 8.66659 3.22388 9.34321L1.73134 8.38799L6.08955 8.38799L6.08955 14.4775L0 14.4775L3.75788e-07 10.179C4.69734e-07 9.1044 0.119404 8.06958 0.35821 7.07455C0.557215 6.11933 0.915423 5.18401 1.43284 4.26858C1.95025 3.35316 2.68657 2.43774 3.64179 1.52231Z" fill="#8A9A5B"/>
</svg>
