<svg width="684" height="555" viewBox="0 0 684 555" fill="none" xmlns="http://www.w3.org/2000/svg">
<path d="M597 1C619.091 1 637 18.9086 637 41V56L680.725 60.3936C682.318 60.5538 683.086 62.4277 682.063 63.6602L637 118V514C637 536.091 619.091 554 597 554H41C18.9086 554 1 536.091 1 514V41C1 18.9086 18.9086 1 41 1H597Z" fill="white"/>
<path d="M637 56H636.5V56.4523L636.95 56.4975L637 56ZM680.725 60.3936L680.775 59.8961L680.775 59.8961L680.725 60.3936ZM682.063 63.6602L681.679 63.341L681.679 63.341L682.063 63.6602ZM637 118L636.615 117.681L636.5 117.82V118H637ZM41 554L41 554.5H41V554ZM1 41L0.5 41V41H1ZM41 1L41 0.5L41 0.5L41 1ZM597 1V1.5C618.815 1.5 636.5 19.1848 636.5 41H637H637.5C637.5 18.6325 619.368 0.5 597 0.5V1ZM637 41H636.5V56H637H637.5V41H637ZM637 56L636.95 56.4975L680.675 60.891L680.725 60.3936L680.775 59.8961L637.05 55.5025L637 56ZM680.725 60.3936L680.675 60.891C681.869 61.0112 682.445 62.4165 681.679 63.341L682.063 63.6602L682.448 63.9793C683.726 62.4389 682.766 60.0964 680.775 59.8961L680.725 60.3936ZM682.063 63.6602L681.679 63.341L636.615 117.681L637 118L637.385 118.319L682.448 63.9793L682.063 63.6602ZM637 118H636.5V514H637H637.5V118H637ZM637 514H636.5C636.5 535.815 618.815 553.5 597 553.5V554V554.5C619.368 554.5 637.5 536.368 637.5 514H637ZM597 554V553.5H41V554V554.5H597V554ZM41 554L41 553.5C19.1848 553.5 1.5 535.815 1.5 514H1H0.5C0.5 536.368 18.6325 554.5 41 554.5L41 554ZM1 514H1.5V41H1H0.5V514H1ZM1 41L1.5 41C1.5 19.1848 19.1848 1.5 41 1.5L41 1L41 0.5C18.6325 0.500002 0.500002 18.6325 0.5 41L1 41ZM41 1V1.5H597V1V0.5H41V1Z" fill="#8A9A5B"/>
</svg>
